<?xml version="1.0" encoding="UTF-8" standalone="no"?>
<!-- Created with Inkscape (http://www.inkscape.org/) -->

<svg
   xmlns:dc="http://purl.org/dc/elements/1.1/"
   xmlns:cc="http://creativecommons.org/ns#"
   xmlns:rdf="http://www.w3.org/1999/02/22-rdf-syntax-ns#"
   xmlns:svg="http://www.w3.org/2000/svg"
   xmlns="http://www.w3.org/2000/svg"
   xmlns:sodipodi="http://sodipodi.sourceforge.net/DTD/sodipodi-0.dtd"
   xmlns:inkscape="http://www.inkscape.org/namespaces/inkscape"
   version="1.1"
   id="svg2"
   xml:space="preserve"
   width="664.22266"
   height="589.38934"
   viewBox="0 0 664.22266 589.38934"
   sodipodi:docname="restrict-delete.svg"
   inkscape:version="0.92.5 (2060ec1f9f, 2020-04-08)"><metadata
     id="metadata8"><rdf:RDF><cc:Work
         rdf:about=""><dc:format>image/svg+xml</dc:format><dc:type
           rdf:resource="http://purl.org/dc/dcmitype/StillImage" /></cc:Work></rdf:RDF></metadata><defs
     id="defs6"><clipPath
       clipPathUnits="userSpaceOnUse"
       id="clipPath18"><path
         d="M 0,442.042 H 498.167 V 0 H 0 Z"
         id="path16"
         inkscape:connector-curvature="0" /></clipPath><clipPath
       clipPathUnits="userSpaceOnUse"
       id="clipPath50"><path
         d="m 213.898,309.99 -0.297,-160.554 136.545,19.19 0.299,160.554 z"
         id="path48"
         inkscape:connector-curvature="0" /></clipPath></defs><sodipodi:namedview
     pagecolor="#ffffff"
     bordercolor="#666666"
     borderopacity="1"
     objecttolerance="10"
     gridtolerance="10"
     guidetolerance="10"
     inkscape:pageopacity="0"
     inkscape:pageshadow="2"
     inkscape:window-width="1450"
     inkscape:window-height="847"
     id="namedview4"
     showgrid="false"
     inkscape:zoom="0.40041443"
     inkscape:cx="332.11133"
     inkscape:cy="294.69467"
     inkscape:window-x="2020"
     inkscape:window-y="139"
     inkscape:window-maximized="0"
     inkscape:current-layer="g10" /><g
     id="g10"
     inkscape:groupmode="layer"
     inkscape:label="Web Puzzlers Icons Svg"
     transform="matrix(1.3333333,0,0,-1.3333333,0,589.38933)"><g
       id="g12"
       transform="matrix(1.2646073,0,0,1.2646073,-59.242996,-59.420263)"><g
         id="g14"
         clip-path="url(#clipPath18)"><g
           id="g20"
           transform="translate(218.1827,65.1778)"><path
             d="m 0,0 c -2.401,4.875 -3.72,10.576 -3.709,16.775 10e-4,0.724 0.025,1.446 0.063,2.165 0.012,0.234 0.034,0.467 0.05,0.7 0.033,0.488 0.071,0.975 0.121,1.461 0.028,0.27 0.062,0.538 0.095,0.807 0.054,0.451 0.115,0.9 0.183,1.347 0.042,0.274 0.086,0.548 0.134,0.822 0.077,0.449 0.163,0.897 0.254,1.344 0.053,0.258 0.103,0.516 0.161,0.773 0.11,0.496 0.232,0.988 0.358,1.479 0.052,0.199 0.098,0.401 0.152,0.6 0.187,0.686 0.388,1.367 0.606,2.043 0.035,0.111 0.077,0.221 0.114,0.333 0.182,0.549 0.373,1.095 0.574,1.637 0.291,0.782 0.599,1.558 0.93,2.322 0.001,0.002 0.001,0.003 0.002,0.005 l -18.324,9.968 c -0.333,-0.765 -0.64,-1.542 -0.932,-2.326 -0.022,-0.06 -0.049,-0.118 -0.072,-0.178 -0.177,-0.484 -0.342,-0.974 -0.504,-1.464 -0.036,-0.11 -0.077,-0.218 -0.113,-0.329 -0.218,-0.675 -0.418,-1.356 -0.605,-2.042 -0.055,-0.2 -0.1,-0.402 -0.152,-0.603 -0.127,-0.49 -0.249,-0.981 -0.359,-1.476 -0.057,-0.257 -0.108,-0.517 -0.16,-0.776 -0.092,-0.445 -0.178,-0.892 -0.255,-1.341 -0.047,-0.274 -0.091,-0.548 -0.133,-0.823 -0.069,-0.447 -0.129,-0.896 -0.184,-1.346 -0.033,-0.269 -0.066,-0.538 -0.094,-0.808 -0.05,-0.485 -0.088,-0.973 -0.122,-1.461 -0.016,-0.233 -0.037,-0.465 -0.05,-0.699 -0.037,-0.72 -0.061,-1.442 -0.063,-2.166 -0.011,-6.199 1.308,-11.9 3.709,-16.775 2.945,-6.057 7.506,-10.875 13.113,-13.925 l 18.324,-9.968 C 7.506,-10.875 2.944,-6.057 0,0"
             style="fill:#700806;fill-opacity:1;fill-rule:nonzero;stroke:none"
             id="path22"
             inkscape:connector-curvature="0" /></g><g
           id="g24"
           transform="translate(136.0357,88.2333)"><path
             d="m 0,0 -18.325,9.968 0.097,51.954 18.324,-9.969 z"
             style="fill:#6b0806;fill-opacity:1;fill-rule:nonzero;stroke:none"
             id="path26"
             inkscape:connector-curvature="0" /></g><g
           id="g28"
           transform="translate(188.0289,184.5887)"><path
             d="m 0,0 c 0.19,0.39 0.37,0.785 0.555,1.178 0.285,0.606 0.57,1.213 0.841,1.826 0.188,0.423 0.367,0.851 0.549,1.278 0.251,0.593 0.501,1.186 0.74,1.784 0.177,0.443 0.346,0.889 0.516,1.334 0.129,0.339 0.268,0.674 0.393,1.015 0.082,0.224 0.152,0.453 0.233,0.678 0.217,0.608 0.425,1.219 0.629,1.833 0.172,0.516 0.343,1.033 0.505,1.553 0.194,0.621 0.376,1.245 0.556,1.87 0.15,0.522 0.301,1.043 0.441,1.568 0.17,0.634 0.325,1.273 0.481,1.912 0.126,0.523 0.256,1.044 0.373,1.568 0.146,0.653 0.275,1.31 0.406,1.966 0.102,0.518 0.211,1.035 0.304,1.556 0.121,0.677 0.223,1.358 0.328,2.039 0.078,0.506 0.163,1.01 0.232,1.518 0.097,0.715 0.171,1.435 0.25,2.154 0.051,0.479 0.114,0.955 0.157,1.435 0.073,0.797 0.12,1.598 0.17,2.399 0.025,0.406 0.062,0.81 0.081,1.217 0.056,1.209 0.088,2.421 0.09,3.637 0.049,26.19 -12.613,47.427 -31.697,57.809 l -18.324,9.968 c 19.084,-10.381 31.745,-31.619 31.697,-57.809 -0.003,-1.215 -0.034,-2.428 -0.09,-3.637 -0.02,-0.406 -0.057,-0.81 -0.082,-1.216 -0.049,-0.801 -0.097,-1.602 -0.169,-2.4 -0.044,-0.48 -0.106,-0.956 -0.158,-1.435 -0.078,-0.719 -0.153,-1.438 -0.25,-2.154 -0.068,-0.508 -0.153,-1.012 -0.232,-1.518 -0.104,-0.681 -0.207,-1.362 -0.328,-2.039 -0.093,-0.521 -0.201,-1.037 -0.304,-1.555 -0.13,-0.657 -0.259,-1.314 -0.405,-1.966 -0.117,-0.525 -0.247,-1.046 -0.374,-1.568 -0.155,-0.639 -0.311,-1.278 -0.481,-1.913 -0.14,-0.525 -0.291,-1.046 -0.441,-1.567 -0.18,-0.625 -0.362,-1.25 -0.555,-1.87 -0.163,-0.52 -0.334,-1.037 -0.506,-1.554 -0.204,-0.613 -0.411,-1.225 -0.629,-1.833 -0.202,-0.566 -0.411,-1.13 -0.625,-1.692 -0.17,-0.446 -0.34,-0.892 -0.517,-1.334 -0.239,-0.599 -0.489,-1.193 -0.741,-1.786 -0.181,-0.426 -0.359,-0.853 -0.546,-1.276 -0.272,-0.614 -0.557,-1.221 -0.843,-1.828 -0.185,-0.392 -0.364,-0.787 -0.555,-1.177 -0.324,-0.665 -0.665,-1.322 -1.006,-1.978 -0.167,-0.321 -0.326,-0.647 -0.497,-0.966 -0.488,-0.911 -0.992,-1.813 -1.509,-2.705 -0.136,-0.233 -0.277,-0.462 -0.414,-0.694 -0.398,-0.672 -0.803,-1.338 -1.217,-1.998 -0.182,-0.291 -0.367,-0.58 -0.553,-0.869 -0.408,-0.633 -0.824,-1.26 -1.247,-1.881 -0.169,-0.248 -0.335,-0.499 -0.506,-0.745 -0.191,-0.275 -0.392,-0.542 -0.586,-0.815 -0.714,-1.004 -1.449,-1.991 -2.202,-2.962 -0.227,-0.292 -0.452,-0.587 -0.683,-0.876 -0.91,-1.145 -1.842,-2.269 -2.806,-3.363 -0.651,-0.74 -1.313,-1.468 -1.988,-2.184 -0.169,-0.18 -0.342,-0.355 -0.512,-0.533 -0.545,-0.569 -1.096,-1.129 -1.655,-1.681 -0.212,-0.21 -0.424,-0.42 -0.638,-0.627 -0.649,-0.629 -1.306,-1.248 -1.973,-1.854 -0.082,-0.074 -0.161,-0.151 -0.243,-0.225 -0.758,-0.684 -1.53,-1.35 -2.311,-2.004 -0.226,-0.19 -0.457,-0.373 -0.685,-0.56 -0.569,-0.466 -1.142,-0.926 -1.721,-1.376 -0.274,-0.213 -0.549,-0.423 -0.826,-0.632 -0.579,-0.438 -1.163,-0.866 -1.752,-1.287 -0.247,-0.177 -0.492,-0.357 -0.741,-0.531 -0.507,-0.354 -1.023,-0.692 -1.538,-1.034 -0.406,-0.27 -0.808,-0.545 -1.219,-0.807 -0.521,-0.333 -1.05,-0.648 -1.578,-0.968 -0.404,-0.244 -0.804,-0.496 -1.212,-0.733 -0.554,-0.322 -1.118,-0.625 -1.68,-0.933 -0.39,-0.214 -0.777,-0.437 -1.171,-0.644 -0.611,-0.321 -1.232,-0.621 -1.85,-0.924 -0.355,-0.174 -0.705,-0.359 -1.062,-0.527 -0.561,-0.264 -1.133,-0.506 -1.7,-0.757 -0.435,-0.191 -0.865,-0.394 -1.302,-0.576 -0.596,-0.249 -1.201,-0.474 -1.803,-0.706 -0.418,-0.162 -0.832,-0.336 -1.253,-0.489 -0.678,-0.247 -1.364,-0.469 -2.049,-0.695 -0.353,-0.117 -0.701,-0.246 -1.056,-0.357 -1.043,-0.327 -2.094,-0.629 -3.152,-0.906 l 18.325,-9.968 c 1.058,0.277 2.108,0.579 3.152,0.905 0.354,0.111 0.703,0.241 1.056,0.358 0.684,0.226 1.371,0.447 2.048,0.694 0.421,0.154 0.835,0.328 1.254,0.489 0.602,0.233 1.206,0.458 1.802,0.706 0.436,0.182 0.864,0.384 1.297,0.575 0.545,0.24 1.095,0.47 1.635,0.724 0.024,0.011 0.048,0.024 0.071,0.035 0.355,0.167 0.703,0.351 1.056,0.524 0.62,0.304 1.243,0.605 1.856,0.927 0.394,0.207 0.78,0.43 1.171,0.644 0.562,0.308 1.125,0.611 1.68,0.933 0.408,0.237 0.809,0.489 1.213,0.734 0.527,0.319 1.056,0.634 1.576,0.966 0.411,0.262 0.815,0.539 1.222,0.809 0.412,0.274 0.83,0.538 1.238,0.82 0.1,0.069 0.197,0.143 0.298,0.213 0.249,0.174 0.494,0.354 0.742,0.531 0.588,0.421 1.172,0.849 1.75,1.286 0.277,0.209 0.552,0.42 0.826,0.632 0.58,0.451 1.154,0.911 1.723,1.377 0.227,0.187 0.458,0.37 0.684,0.56 0.76,0.637 1.514,1.285 2.254,1.951 0.019,0.018 0.038,0.036 0.057,0.054 0.081,0.072 0.159,0.148 0.239,0.221 0.668,0.607 1.326,1.226 1.975,1.855 0.215,0.208 0.428,0.419 0.641,0.629 0.557,0.551 1.108,1.111 1.651,1.679 0.172,0.179 0.346,0.355 0.516,0.535 0.64,0.68 1.272,1.367 1.891,2.068 0.033,0.038 0.063,0.078 0.096,0.115 0.963,1.095 1.895,2.22 2.807,3.364 0.23,0.289 0.453,0.582 0.68,0.874 0.754,0.972 1.49,1.961 2.205,2.966 0.121,0.17 0.253,0.33 0.373,0.501 0.072,0.102 0.14,0.208 0.211,0.31 0.172,0.248 0.339,0.5 0.509,0.75 0.421,0.62 0.837,1.245 1.243,1.876 0.186,0.29 0.372,0.579 0.555,0.871 0.415,0.661 0.82,1.329 1.219,2.001 0.136,0.23 0.276,0.457 0.41,0.689 0.492,0.847 0.973,1.702 1.438,2.566 0.025,0.046 0.048,0.094 0.072,0.141 0.171,0.319 0.331,0.644 0.498,0.966 C -0.665,-1.322 -0.325,-0.665 0,0"
             style="fill:#6c0806;fill-opacity:1;fill-rule:nonzero;stroke:none"
             id="path30"
             inkscape:connector-curvature="0" /></g><g
           id="g32"
           transform="translate(339.7567,384.1081)"><path
             d="m 0,0 c 22.517,3.165 40.744,-13.973 40.699,-38.285 l -0.415,-223.297 -96.853,-13.612 c 2.393,-4.884 3.744,-10.572 3.732,-16.78 -0.011,-6.199 -1.36,-12.275 -3.773,-17.826 -5.927,-13.755 -18.296,-24.379 -32.538,-26.381 -14.219,-1.998 -26.547,5.155 -32.426,17.251 -2.402,4.874 -3.721,10.575 -3.709,16.774 0.012,6.208 1.384,12.279 3.797,17.839 l -82.235,-11.558 0.096,51.953 c 34.061,8.91 60.657,43.877 60.727,81.721 0.071,37.851 -26.41,65.359 -60.455,64.697 l 0.128,68.943 z"
             style="fill:#ad130f;fill-opacity:1;fill-rule:nonzero;stroke:none"
             id="path34"
             inkscape:connector-curvature="0" /></g><g
           id="g36"
           transform="translate(136.4041,286.6045)"><path
             d="m 0,0 -18.325,9.968 0.129,68.943 18.324,-9.969 z"
             style="fill:#6b0806;fill-opacity:1;fill-rule:nonzero;stroke:none"
             id="path38"
             inkscape:connector-curvature="0" /></g><g
           id="g40"
           transform="translate(343.1475,384.4289)"><path
             d="M 0,0 C 0.198,0.01 0.396,0.018 0.594,0.026 0.972,0.039 1.348,0.046 1.722,0.048 1.904,0.049 2.087,0.052 2.268,0.05 2.732,0.046 3.194,0.032 3.654,0.01 3.736,0.006 3.819,0.006 3.902,0.001 4.441,-0.028 4.976,-0.071 5.507,-0.124 5.662,-0.14 5.814,-0.16 5.968,-0.178 c 0.381,-0.043 0.76,-0.09 1.136,-0.145 0.184,-0.027 0.367,-0.057 0.55,-0.086 0.353,-0.058 0.704,-0.121 1.053,-0.189 0.176,-0.034 0.354,-0.068 0.529,-0.105 0.395,-0.083 0.787,-0.175 1.178,-0.271 0.117,-0.029 0.235,-0.055 0.351,-0.085 0.51,-0.132 1.014,-0.276 1.514,-0.431 0.132,-0.041 0.261,-0.086 0.392,-0.129 0.372,-0.12 0.742,-0.245 1.109,-0.378 0.168,-0.06 0.334,-0.123 0.501,-0.187 0.34,-0.129 0.676,-0.264 1.011,-0.403 0.154,-0.065 0.309,-0.128 0.463,-0.195 0.422,-0.184 0.841,-0.376 1.254,-0.576 0.054,-0.027 0.11,-0.05 0.163,-0.077 0.392,-0.193 0.779,-0.393 1.162,-0.601 0.019,-0.01 0.039,-0.019 0.058,-0.029 l -0.003,0.001 c 0.001,-0.001 0.002,-0.001 0.003,-0.001 L 0.067,5.903 C -0.334,6.121 -0.741,6.331 -1.152,6.533 -1.16,6.537 -1.168,6.542 -1.176,6.546 -1.222,6.568 -1.27,6.588 -1.315,6.61 -1.729,6.811 -2.147,7.003 -2.57,7.187 -2.723,7.253 -2.878,7.317 -3.033,7.381 -3.368,7.521 -3.705,7.656 -4.044,7.785 -4.21,7.848 -4.377,7.911 -4.544,7.971 -4.912,8.104 -5.282,8.23 -5.655,8.35 -5.786,8.392 -5.914,8.438 -6.045,8.478 -6.545,8.633 -7.05,8.777 -7.56,8.909 -7.581,8.915 -7.602,8.922 -7.623,8.927 -7.717,8.952 -7.814,8.97 -7.91,8.994 -8.3,9.091 -8.693,9.182 -9.089,9.266 c -0.175,0.037 -0.352,0.07 -0.529,0.105 -0.348,0.068 -0.698,0.13 -1.051,0.188 -0.184,0.03 -0.368,0.059 -0.553,0.086 -0.376,0.056 -0.756,0.103 -1.136,0.146 -0.153,0.017 -0.305,0.038 -0.458,0.053 -0.532,0.053 -1.067,0.096 -1.607,0.126 -0.082,0.004 -0.165,0.005 -0.248,0.009 -0.459,0.021 -0.921,0.035 -1.386,0.039 -0.181,0.002 -0.363,-0.001 -0.545,-0.002 -0.375,-0.002 -0.752,-0.009 -1.13,-0.022 -0.197,-0.007 -0.394,-0.015 -0.592,-0.026 -0.387,-0.02 -0.776,-0.047 -1.166,-0.079 -0.176,-0.015 -0.352,-0.027 -0.529,-0.044 -0.563,-0.054 -1.128,-0.118 -1.696,-0.197 l -203.225,-28.562 18.325,-9.968 203.224,28.561 c 0.569,0.08 1.134,0.144 1.697,0.198 0.177,0.017 0.352,0.029 0.529,0.043 0.39,0.033 0.778,0.06 1.165,0.08"
             style="fill:#8f0e0a;fill-opacity:1;fill-rule:nonzero;stroke:none"
             id="path42"
             inkscape:connector-curvature="0" /></g></g></g><g
       id="g44"
       transform="matrix(1.2646073,0,0,1.2646073,-59.242996,-59.420263)"><g
         id="g46"
         clip-path="url(#clipPath50)"><g
           id="g52"
           transform="translate(283.0807,252.8544)"><path
             d="m 0,0 c -6.408,-0.901 -12.573,-4.395 -17.26,-9.773 -4.687,-5.387 -7.527,-12.251 -7.956,-19.2 -0.413,-6.671 1.426,-12.947 5.165,-17.651 L 15.345,-3.522 C 10.971,-0.455 5.567,0.782 0,0"
             style="fill:#ffffff;fill-opacity:1;fill-rule:nonzero;stroke:none"
             id="path54"
             inkscape:connector-curvature="0" /></g><g
           id="g56"
           transform="translate(304.2851,243.2752)"><path
             d="m 0,0 -34.883,-42.468 c 4.024,-2.226 8.731,-3.077 13.577,-2.396 6.401,0.891 12.574,4.386 17.253,9.772 4.686,5.386 7.526,12.251 7.956,19.209 C 4.266,-10.024 2.883,-4.453 0,0"
             style="fill:#ffffff;fill-opacity:1;fill-rule:nonzero;stroke:none"
             id="path58"
             inkscape:connector-curvature="0" /></g><g
           id="g60"
           transform="translate(330.5979,287.0625)"><path
             d="m 0,0 c -0.009,-0.001 -0.019,-0.003 -0.028,-0.004 l -96.958,-13.627 c -0.01,-10e-4 -0.019,-0.002 -0.029,-0.004 -1.632,-0.229 -3.191,-1.19 -4.293,-2.669 -1.108,-1.469 -1.632,-3.315 -1.443,-5.052 l 9.421,-89.079 c 0.684,-6.473 3.581,-12.125 8.147,-15.892 4.557,-3.751 10.452,-5.359 16.568,-4.5 l 0.033,0.005 41.309,5.805 c 6.208,0.873 12.197,4.204 16.795,9.362 4.606,5.151 7.486,11.753 8.083,18.501 L 5.719,-5.99 C 5.874,-4.222 5.34,-2.569 4.245,-1.426 3.157,-0.29 1.616,0.227 0,0 m -47.636,-97.997 c -7.161,-0.998 -14.078,0.476 -19.797,4.141 -1.463,0.926 -2.839,2.004 -4.134,3.213 -0.767,0.722 -1.495,1.484 -2.174,2.297 -4.97,5.818 -7.711,13.645 -7.711,22.15 0.018,9.701 3.6,19.505 9.973,27.255 6.373,7.758 14.992,12.816 23.979,14.079 7.89,1.109 15.503,-0.794 21.525,-5.325 0.831,-0.617 1.639,-1.299 2.414,-2.02 1.287,-1.211 2.462,-2.532 3.501,-3.968 4.13,-5.609 6.383,-12.769 6.368,-20.498 -0.018,-9.692 -3.608,-19.497 -9.965,-27.245 -6.373,-7.759 -14.999,-12.817 -23.979,-14.079"
             style="fill:#ffffff;fill-opacity:1;fill-rule:nonzero;stroke:none"
             id="path62"
             inkscape:connector-curvature="0" /></g><g
           id="g64"
           transform="translate(294.2592,321.2839)"><path
             d="m 0,0 -24.175,-3.398 c -3.557,-0.499 -6.98,-2.511 -9.509,-5.58 -2.52,-3.068 -3.945,-6.959 -3.952,-10.807 l -0.01,-5.464 -42.752,-6.008 -0.023,-12.424 136.546,19.19 0.023,12.424 -42.752,-6.008 0.011,5.464 C 13.414,-8.764 12.011,-5.27 9.493,-2.91 6.982,-0.549 3.565,0.501 0,0 m -26.127,-23.63 0.01,5.464 c 0.002,1.15 0.861,2.196 1.919,2.344 l 24.175,3.398 c 0.513,0.072 1.001,-0.076 1.361,-0.414 0.359,-0.338 0.559,-0.838 0.558,-1.391 l -0.01,-5.464 z"
             style="fill:#ffffff;fill-opacity:1;fill-rule:nonzero;stroke:none"
             id="path66"
             inkscape:connector-curvature="0" /></g></g></g></g></svg>