<?xml version="1.0" encoding="windows-1252"?>
<!-- Generator: Adobe Illustrator 19.1.1, SVG Export Plug-In . SVG Version: 6.00 Build 0)  -->
<svg version="1.1" id="Layer_1" xmlns="http://www.w3.org/2000/svg" xmlns:xlink="http://www.w3.org/1999/xlink" x="0px" y="0px" viewBox="0 0 40 40" style="enable-background:new 0 0 40 40;" xml:space="preserve">
<g>
	<path style="fill:#FFCFCF;" d="M19.999,38.458C18.292,37.715,4.635,30.984,4.501,6.367L20,1.524l15.499,4.843   C35.365,30.919,21.707,37.708,19.999,38.458z"/>
	<g>
		<path style="fill:#F7A3A3;" d="M20,2.048l14.996,4.686c-0.258,23.19-12.752,30.119-15,31.177    C17.735,36.869,5.26,30.057,5.004,6.734L20,2.048 M20,1L4,6c0,27.141,16,33,16,33s16-5.932,16-33L20,1L20,1z"/>
	</g>
</g>
<circle style="fill:#FFFFFF;" cx="20" cy="19" r="7.714"/>
<g>
	<g>
		<path style="fill:#F78F8F;" d="M20,27.5c-4.687,0-8.5-3.813-8.5-8.5s3.813-8.5,8.5-8.5s8.5,3.813,8.5,8.5S24.687,27.5,20,27.5z     M16.147,24.267l0.555,0.328C17.705,25.187,18.845,25.5,20,25.5c3.584,0,6.5-2.916,6.5-6.5c0-1.155-0.313-2.295-0.905-3.298    l-0.328-0.555L16.147,24.267z M20,12.5c-3.584,0-6.5,2.916-6.5,6.5c0,1.155,0.313,2.295,0.905,3.298l0.328,0.555l9.12-9.12    l-0.555-0.328C22.295,12.813,21.155,12.5,20,12.5z"/>
	</g>
	<g>
		<path style="fill:#C74343;" d="M20,11c4.411,0,8,3.589,8,8c0,4.411-3.589,8-8,8s-8-3.589-8-8C12,14.589,15.589,11,20,11     M14.631,23.663l0.912-0.912l8.208-8.208l0.912-0.912l-1.111-0.656C22.472,12.337,21.244,12,20,12c-3.86,0-7,3.14-7,7    c0,1.244,0.337,2.472,0.975,3.552L14.631,23.663 M20,26c3.86,0,7-3.14,7-7c0-1.244-0.337-2.472-0.975-3.552l-0.656-1.111    l-0.912,0.912l-8.208,8.208l-0.912,0.912l1.111,0.656C17.527,25.663,18.756,26,20,26 M20,10c-4.971,0-9,4.029-9,9    c0,4.971,4.029,9,9,9s9-4.029,9-9C29,14.029,24.971,10,20,10L20,10z M14.836,22.043C14.308,21.15,14,20.112,14,19    c0-3.314,2.686-6,6-6c1.112,0,2.15,0.308,3.043,0.836L14.836,22.043L14.836,22.043z M20,25c-1.112,0-2.15-0.308-3.043-0.836    l8.208-8.208C25.692,16.85,26,17.888,26,19C26,22.314,23.314,25,20,25L20,25z"/>
	</g>
</g>
</svg>